<?xml version="1.0" encoding="utf-8"?>
<!-- Generator: Adobe Illustrator 23.1.0, SVG Export Plug-In . SVG Version: 6.00 Build 0)  -->
<svg version="1.1" id="Capa_1" xmlns="http://www.w3.org/2000/svg" xmlns:xlink="http://www.w3.org/1999/xlink" x="0px" y="0px"
	 viewBox="0 0 512 512" style="enable-background:new 0 0 512 512;" xml:space="preserve">
<style type="text/css">
	.st0{fill:#FFFFFF;}
</style>
<g id="_x3C_Group_x3E__18_">
	<g>
		<path class="st0" d="M226,301h15v-30h-60v-45c0-8.3-6.7-15-15-15s-15,6.7-15,15v45H43.1c-28.3,48.3-5.3,112.5,50.2,130.3
			C80.2,459.5,124.3,512,181,512c23,0,44.1-8.7,60-23v-98h-15c-24.8,0-45-20.2-45-45S201.2,301,226,301z M468.9,271H391v15
			c0,24.8-20.2,45-45,45s-45-20.2-45-45v-15h-30v60h-45c-8.3,0-15,6.7-15,15s6.7,15,15,15h45v128c15.9,14.3,37,23,60,23
			c56.7,0,100.8-52.5,87.6-110.7C474.1,383.5,497.2,319.3,468.9,271z M418.6,110.7C431.8,52.5,387.7,0,331,0c-23,0-44.1,8.7-60,23
			v98h15c24.8,0,45,20.2,45,45s-20.2,45-45,45h-15v30h60v45c0,8.3,6.7,15,15,15s15-6.7,15-15v-45h107.9
			C497.2,192.7,474.2,128.5,418.6,110.7z M286,151h-45V23C225.1,8.7,204,0,181,0C124.3,0,80.2,52.5,93.3,110.7
			c-55.5,17.8-78.5,82-50.2,130.3H121v-15c0-24.8,20.2-45,45-45s45,20.2,45,45v15h30v-60h45c8.3,0,15-6.7,15-15S294.3,151,286,151z"
			/>
	</g>
</g>
</svg>
