<?xml version="1.0" encoding="utf-8"?>
<!-- Generator: Adobe Illustrator 23.1.0, SVG Export Plug-In . SVG Version: 6.00 Build 0)  -->
<svg version="1.1" id="Layer_1" xmlns="http://www.w3.org/2000/svg" xmlns:xlink="http://www.w3.org/1999/xlink" x="0px" y="0px"
	 viewBox="0 0 512 512" style="enable-background:new 0 0 512 512;" xml:space="preserve">
<style type="text/css">
	.st0{fill:#FFFFFF;}
</style>
<path class="st0" d="M490.2,264.3c-22.2,0-43,8.6-58.8,24.3c-50.5,58.5-47.1,54.7-47.5,55c-15.9,15.9-43.1,4.7-43.1-17.9
	c0-49.6-0.1-45.9,0.3-47.5l55.7-208.4c4.3-16-5.2-32.6-21.2-36.9c-16.1-4.3-32.5,5.3-36.8,21.3c0,0.1,1.2-4.2-58.4,204.1
	c-2.6,9.2-16.2,7.3-16.2-2.3V30.1c0-16.6-13.5-30.1-30-30.1s-30,13.5-30,30.1v219.3c0,9.6-13.8,11.4-16.2,2.1L137.8,63.9
	c-2.1-7.8-7.1-14.3-14-18.3c-23-13.3-50.9,8-44,33.9l51.4,192.4c2.5,9.3-10.4,14.6-15.1,6.3l-68-118c-4.8-8.3-13.4-12.9-22.4-12.9
	c-19.6,0-32.2,21.5-22.3,38.8l47.8,82.9c19.4,33.6,29.6,71.9,29.6,110.7c0,73,59.3,132.4,132.1,132.4h30.2
	c38.7,0,75-15.1,102.4-42.5l159.6-167.4c2.9-2.3,6.6-8.5,6.9-14.9C512.6,274.7,502.7,264.3,490.2,264.3L490.2,264.3z M324.8,349.5
	c-59.1,7.9-103.7,58.8-103.7,118.5c0,4.6-3.7,8.3-8.3,8.3c-4.6,0-8.3-3.7-8.3-8.3c0-68,50.7-126,118-134.9c4.5-0.6,8.7,2.6,9.3,7.1
	C332.5,344.7,329.3,348.9,324.8,349.5L324.8,349.5z"/>
</svg>
